<svg width="31" height="31" viewBox="0 0 44 42" fill="none" xmlns="http://www.w3.org/2000/svg">
<path d="M40.4906 33.1825C38.7886 32.9455 39.2528 29.1532 39.8201 28.4421C40.3874 27.7311 40.2843 26.6882 39.6654 24.2232C39.0465 21.7582 38.0666 22.4219 36.571 22.6115C36.4678 21.0946 39.3044 18.5348 40.9547 17.7763C42.6051 17.0179 41.7799 14.3159 43.3787 11.4717C44.9258 8.62744 41.3157 9.76513 38.8402 9.14888C36.3647 8.53264 30.4338 4.88256 28.6803 2.98642C28.0099 2.22797 27.2878 1.04288 26.0501 0.568843C24.8123 0.0948071 23.2651 0 22.44 0C22.1305 0 21.8211 0.237018 21.8211 0.521439C21.7179 1.65912 21.2538 4.36113 19.294 5.07218C16.7669 5.97285 16.5606 7.53716 14.6524 7.34755C13.7757 7.25274 13.0536 6.11506 12.28 5.73583C11.7643 5.45141 10.9391 5.68842 10.475 5.87804C10.1655 5.97285 10.0108 6.25727 10.0624 6.54169C10.2171 7.34755 10.5265 9.00667 11.0939 10.3814C9.64981 10.4288 7.38059 10.5236 6.09126 9.19629C5.11137 8.20081 2.06855 9.14888 0.676074 9.62292C0.263489 9.76513 -0.0459497 10.1918 0.00562346 10.6184C0.0571966 11.5191 0.366635 12.9412 1.55282 13.3204C7.22587 15.1217 10.114 22.1375 10.114 22.1375C11.3001 26.0719 9.18565 32.4714 8.10261 35.6475C7.94789 36.1215 8.15418 36.6429 8.56677 36.9274C10.9907 38.5391 13.9304 39.0131 16.3027 39.0605C17.1795 39.0605 18.0047 39.3449 18.6235 39.8664C20.1707 41.0989 21.8726 41.2411 24.3482 41.0989C24.8123 41.0989 25.1733 40.6722 25.1218 40.2456C24.4513 35.0312 31.1558 35.9319 34.3533 37.5436C37.7056 39.2501 38.015 37.6384 40.3358 36.1215C42.6566 34.6046 42.1925 33.3721 40.4906 33.1825Z" fill="#EB9632"/>
</svg>
