<svg width="35" height="35" viewBox="0 0 35 35" fill="none" xmlns="http://www.w3.org/2000/svg">
<g clip-path="url(#clip0_101_665)">
<path d="M28.2479 11.5306C27.2417 6.4993 22.8229 2.72222 17.5146 2.72222C13.3 2.72222 9.63957 5.11389 7.81666 8.61389C5.67325 8.84552 3.69104 9.86107 2.25091 11.4654C0.81078 13.0697 0.0143217 15.1497 0.0145722 17.3056C0.0145722 22.1326 3.93749 26.0556 8.76457 26.0556H27.7229C31.7479 26.0556 35.0146 22.7889 35.0146 18.7639C35.0146 14.9139 32.025 11.7931 28.2479 11.5306V11.5306Z" fill="#D5D5D5"/>
<path d="M5.44435 26.9813L5.46134 26.9734C6.39597 26.5375 7.49233 26.9366 7.92816 27.8712L9.96465 32.2385C10.4005 33.1731 10.0014 34.2695 9.04188 34.6962L9.02489 34.7042C8.09026 35.14 6.9939 34.7409 6.55807 33.8063L4.5295 29.456C4.09368 28.5214 4.49272 27.425 5.44435 26.9813Z" fill="#3DB0F0"/>
<path d="M13.4407 26.9813L13.4577 26.9734C14.3923 26.5375 15.4887 26.9366 15.9245 27.8712L17.1157 30.4259C17.5516 31.3605 17.1525 32.4569 16.193 32.8836L16.176 32.8915C15.2413 33.3274 14.145 32.9283 13.7092 31.9937L12.5258 29.456C12.09 28.5214 12.489 27.425 13.4407 26.9813Z" fill="#3DB0F0"/>
<path d="M20.5918 26.9813L20.6088 26.9734C21.5434 26.5375 22.6397 26.9366 23.0756 27.8712L25.1121 32.2385C25.5479 33.1731 25.1488 34.2695 24.1893 34.6962L24.1723 34.7042C23.2377 35.14 22.1413 34.7409 21.7055 33.8063L19.6769 29.456C19.2411 28.5214 19.6401 27.425 20.5918 26.9813Z" fill="#3DB0F0"/>
<path d="M28.5881 26.9813L28.6051 26.9734C29.5397 26.5375 30.6361 26.9366 31.0719 27.8712L32.2632 30.4259C32.699 31.3605 32.2999 32.4569 31.3404 32.8836L31.3234 32.8915C30.3888 33.3274 29.2924 32.9283 28.8566 31.9937L27.6732 29.456C27.2374 28.5214 27.6365 27.425 28.5881 26.9813Z" fill="#3DB0F0"/>
</g>
<defs>
<clipPath id="clip0_101_665">
<rect width="35" height="35" fill="white"/>
</clipPath>
</defs>
</svg>
