<svg width="31" height="31" viewBox="0 0 37 37" fill="none" xmlns="http://www.w3.org/2000/svg">
<path d="M31.8875 20.2625C31.9625 19.7 32 19.1188 32 18.5C32 17.9 31.9625 17.3 31.8687 16.7375L35.675 13.775C35.839 13.6398 35.9511 13.4519 35.9921 13.2434C36.0331 13.0348 36.0006 12.8185 35.9 12.6313L32.3 6.40626C32.194 6.21794 32.0248 6.07321 31.8223 5.99771C31.6198 5.92221 31.3972 5.92081 31.1937 5.99375L26.7125 7.79375C25.775 7.08125 24.7812 6.48125 23.675 6.03125L23 1.26876C22.9668 1.05412 22.8577 0.858519 22.6926 0.717461C22.5274 0.576403 22.3172 0.499247 22.1 0.500006H14.9C14.45 0.500006 14.0937 0.818755 14.0187 1.26876L13.3437 6.03125C12.2375 6.48125 11.225 7.1 10.3062 7.79375L5.82499 5.99375C5.41249 5.84375 4.94374 5.99376 4.71874 6.40626L1.13749 12.6313C0.912494 13.025 0.987494 13.5125 1.36249 13.775L5.16874 16.7375C5.07499 17.3 4.99999 17.9188 4.99999 18.5C4.99999 19.0813 5.03749 19.7 5.13124 20.2625L1.32499 23.225C1.16098 23.3602 1.04891 23.5481 1.00788 23.7566C0.966852 23.9652 0.999406 24.1815 1.09999 24.3688L4.69999 30.5938C4.92499 31.0063 5.39374 31.1375 5.80624 31.0063L10.2875 29.2063C11.225 29.9188 12.2187 30.5188 13.325 30.9688L14 35.7313C14.0937 36.1813 14.45 36.5 14.9 36.5H22.1C22.55 36.5 22.925 36.1813 22.9812 35.7313L23.6562 30.9688C24.7625 30.5188 25.775 29.9188 26.6937 29.2063L31.175 31.0063C31.5875 31.1563 32.0562 31.0063 32.2812 30.5938L35.8812 24.3688C36.1062 23.9563 36.0125 23.4875 35.6562 23.225L31.8875 20.2625V20.2625ZM18.5 25.25C14.7875 25.25 11.75 22.2125 11.75 18.5C11.75 14.7875 14.7875 11.75 18.5 11.75C22.2125 11.75 25.25 14.7875 25.25 18.5C25.25 22.2125 22.2125 25.25 18.5 25.25Z" fill="#EB9632"/>
</svg>
