<svg width="33" height="33" viewBox="0 0 33 33" fill="none" xmlns="http://www.w3.org/2000/svg">
<path d="M7.82291 6.03751L7.25416 5.46876C6.98284 5.1991 6.61586 5.04775 6.23333 5.04775C5.8508 5.04775 5.48381 5.1991 5.2125 5.46876L5.19791 5.48335C5.06281 5.61682 4.95555 5.77578 4.88234 5.95101C4.80913 6.12624 4.77144 6.31427 4.77144 6.50418C4.77144 6.69409 4.80913 6.88211 4.88234 7.05735C4.95555 7.23258 5.06281 7.39154 5.19791 7.52501L5.76666 8.09376C6.33541 8.66251 7.23958 8.66251 7.80833 8.09376L7.82291 8.07918C7.95801 7.94571 8.06527 7.78675 8.13848 7.61151C8.21169 7.43628 8.24939 7.24826 8.24939 7.05835C8.24939 6.86843 8.21169 6.68041 8.13848 6.50518C8.06527 6.32994 7.95801 6.17098 7.82291 6.03751ZM3.38958 15.3125H1.90208C1.09999 15.3125 0.458328 15.9542 0.458328 16.7563V16.7708C0.458328 17.5729 1.09999 18.2146 1.90208 18.2146H3.37499C4.19166 18.2292 4.83333 17.5875 4.83333 16.7854V16.7708C4.83333 15.9542 4.19166 15.3125 3.38958 15.3125ZM16.5146 0.802086H16.5C15.6833 0.802086 15.0417 1.44376 15.0417 2.24584V3.64584C15.0417 4.44793 15.6833 5.08959 16.4854 5.08959H16.5C17.3167 5.10418 17.9583 4.46251 17.9583 3.66043V2.24584C17.9583 1.44376 17.3167 0.802086 16.5146 0.802086ZM27.8021 5.48335C27.2333 4.9146 26.3146 4.91459 25.7458 5.46876L25.1771 6.03751C25.042 6.17098 24.9347 6.32994 24.8615 6.50518C24.7883 6.68041 24.7506 6.86843 24.7506 7.05835C24.7506 7.24826 24.7883 7.43628 24.8615 7.61151C24.9347 7.78675 25.042 7.94571 25.1771 8.07918L25.1917 8.09376C25.7604 8.66251 26.6792 8.66251 27.2333 8.09376L27.8021 7.52501C27.9372 7.39154 28.0444 7.23258 28.1176 7.05735C28.1909 6.88211 28.2286 6.69409 28.2286 6.50418C28.2286 6.31427 28.1909 6.12624 28.1176 5.95101C28.0444 5.77578 27.9372 5.61682 27.8021 5.48335ZM25.1625 27.5042L25.7312 28.0729C26.0039 28.3456 26.3737 28.4988 26.7594 28.4988C27.145 28.4988 27.5148 28.3456 27.7875 28.0729C28.0602 27.8002 28.2134 27.4304 28.2134 27.0448C28.2134 26.6592 28.0602 26.2894 27.7875 26.0167L27.2187 25.4479C26.9474 25.1783 26.5804 25.0269 26.1979 25.0269C25.8154 25.0269 25.4484 25.1783 25.1771 25.4479C24.5937 26.0313 24.5937 26.9354 25.1625 27.5042ZM28.1667 16.7563V16.7708C28.1667 17.5729 28.8083 18.2146 29.6104 18.2146H31.0833C31.8854 18.2146 32.5271 17.5729 32.5271 16.7708V16.7563C32.5271 15.9542 31.8854 15.3125 31.0833 15.3125H29.6104C28.8083 15.3125 28.1667 15.9542 28.1667 16.7563ZM16.5 8.02085C11.6729 8.02085 7.75 11.9438 7.75 16.7708C7.75 21.5979 11.6729 25.5208 16.5 25.5208C21.3271 25.5208 25.25 21.5979 25.25 16.7708C25.25 11.9438 21.3271 8.02085 16.5 8.02085ZM16.4854 32.7396H16.5C17.3021 32.7396 17.9437 32.0979 17.9437 31.2958V29.8958C17.9437 29.0938 17.3021 28.4521 16.5 28.4521H16.4854C15.6833 28.4521 15.0417 29.0938 15.0417 29.8958V31.2958C15.0417 32.0979 15.6833 32.7396 16.4854 32.7396ZM5.19791 28.0583C5.76666 28.6271 6.68541 28.6271 7.25416 28.0583L7.82291 27.4896C8.09257 27.2183 8.24392 26.8513 8.24392 26.4688C8.24392 26.0862 8.09257 25.7192 7.82291 25.4479L7.80833 25.4333C7.67341 25.2982 7.51316 25.1909 7.33674 25.1177C7.16032 25.0445 6.9712 25.0069 6.7802 25.0069C6.58921 25.0069 6.40009 25.0445 6.22367 25.1177C6.04725 25.1909 5.88699 25.2982 5.75208 25.4333L5.18333 26.0021C4.62916 26.5854 4.62916 27.4896 5.19791 28.0583Z" fill="#F2E040"/>
</svg>
