<svg width="31" height="31" viewBox="0 0 35 36" fill="none" xmlns="http://www.w3.org/2000/svg">
  <path d="M22.875 16.625V6.93123C22.875 5.93748 22.4812 4.98123 21.7687 4.28748L18.5625 1.08123C18.389 0.907411 18.183 0.76951 17.9562 0.675419C17.7293 0.581329 17.4862 0.532898 17.2406 0.532898C16.9951 0.532898 16.7519 0.581329 16.5251 0.675419C16.2983 0.76951 16.0922 0.907411 15.9187 1.08123L12.7313 4.26873C12.0188 4.98123 11.625 5.93748 11.625 6.93123V9.12498H4.125C2.0625 9.12498 0.375 10.8125 0.375 12.875V31.625C0.375 33.6875 2.0625 35.375 4.125 35.375H30.375C32.4375 35.375 34.125 33.6875 34.125 31.625V20.375C34.125 18.3125 32.4375 16.625 30.375 16.625H22.875ZM7.875 31.625H4.125V27.875H7.875V31.625ZM7.875 24.125H4.125V20.375H7.875V24.125ZM7.875 16.625H4.125V12.875H7.875V16.625ZM19.125 31.625H15.375V27.875H19.125V31.625ZM19.125 24.125H15.375V20.375H19.125V24.125ZM19.125 16.625H15.375V12.875H19.125V16.625ZM19.125 9.12498H15.375V5.37498H19.125V9.12498ZM30.375 31.625H26.625V27.875H30.375V31.625ZM30.375 24.125H26.625V20.375H30.375V24.125Z" fill="#EB9632"/>
</svg>
